# xmcd
#
# Track frame offsets: 
#        150
#        13929
#        31033
#        47416
#        65283
#        85827
#        90793
#        112399
#        149327
#
# Disc length: 2248 seconds
#
# Revision: 0
# Processed by: cddbd v1.5.2PL0 Copyright (c) Steve Scherf et al.
# Submitted via: ExactAudioCopy v1.0b4
#
DISCID=6a08c609
DTITLE=Torf \\ Sixpackgods \\ Thy Grave - Addicted Blues
DYEAR=2014
DGENRE=Sludge Metal
TTITLE0=Torf - Monkey Business - Apes of Fuck
TTITLE1=Torf - Sweet Feeling feat. Kova
TTITLE2=Torf - Happiness How It Is!!!
TTITLE3=Torf - Doomed Youth 12.19.19.17.19
TTITLE4=Sixpackgods - Nothing
TTITLE5=Sixpackgods - Sixpackgods
TTITLE6=Sixpackgods - Speed Up Sister
TTITLE7=Thy Grave - Satanic Dark Hall
TTITLE8=Thy Grave - Rotting From Within
EXTD=
EXTT0=
EXTT1=
EXTT2=
EXTT3=
EXTT4=
EXTT5=
EXTT6=
EXTT7=
EXTT8=
PLAYORDER=
